<?xml version="1.0" encoding="UTF-8"?>
<svg version="1.1" xmlns="http://www.w3.org/2000/svg" width="588" height="425">
<path d="M0 0 C0.79591553 -0.00547852 1.59183105 -0.01095703 2.41186523 -0.01660156 C10.08749371 0.07590471 16.61149587 1.82813447 23.6875 4.875 C24.70585937 5.30941406 25.72421875 5.74382812 26.7734375 6.19140625 C28.30120762 6.86597552 29.81874628 7.56562314 31.3125 8.3125 C31.3125 8.9725 31.3125 9.6325 31.3125 10.3125 C32.6325 10.6425 33.9525 10.9725 35.3125 11.3125 C35.3125 11.9725 35.3125 12.6325 35.3125 13.3125 C35.87839844 13.55226562 36.44429688 13.79203125 37.02734375 14.0390625 C39.78552711 15.57610143 41.6645728 17.43593118 43.875 19.6875 C44.63941406 20.45835937 45.40382813 21.22921875 46.19140625 22.0234375 C51.3125 27.55006906 51.3125 27.55006906 51.3125 31.3125 C48.0625 31.625 48.0625 31.625 44.3125 31.3125 C41.875 28.9375 41.875 28.9375 40.3125 26.3125 C40.3125 25.6525 40.3125 24.9925 40.3125 24.3125 C39.3225 24.3125 38.3325 24.3125 37.3125 24.3125 C35.625 22.9375 35.625 22.9375 34.3125 21.3125 C34.3125 20.6525 34.3125 19.9925 34.3125 19.3125 C33.796875 19.085625 33.28125 18.85875 32.75 18.625 C30.65151762 17.49504795 28.99913364 16.32200551 27.125 14.875 C19.76022486 9.56986536 11.1033673 8.62607787 2.3125 7.3125 C2.3125 11.6025 2.3125 15.8925 2.3125 20.3125 C4.849375 20.18875 4.849375 20.18875 7.4375 20.0625 C12.58185808 20.0625 15.38470914 20.77748823 19.3125 24.3125 C21.72886294 26.97049923 22.3125 27.66544333 22.3125 31.3125 C20.0025 31.3125 17.6925 31.3125 15.3125 31.3125 C14.8175 29.8275 14.8175 29.8275 14.3125 28.3125 C8.62882113 26.41794038 3.81446983 27.16538982 -1.6875 29.3125 C-3.30530157 27.69469843 -2.91022147 25.85614482 -3.00390625 23.62109375 C-3.04580078 22.67685547 -3.08769531 21.73261719 -3.13085938 20.75976562 C-3.17017578 19.76654297 -3.20949219 18.77332031 -3.25 17.75 C-3.29318359 16.75291016 -3.33636719 15.75582031 -3.38085938 14.72851562 C-3.48730298 12.2566585 -3.58931928 9.7846969 -3.6875 7.3125 C-11.7787148 8.14457528 -18.07120533 10.11779725 -25.19140625 14.0703125 C-27.6875 15.3125 -27.6875 15.3125 -30.6875 15.3125 C-31.0175 16.3025 -31.3475 17.2925 -31.6875 18.3125 C-32.3475 18.3125 -33.0075 18.3125 -33.6875 18.3125 C-34.0175 19.3025 -34.3475 20.2925 -34.6875 21.3125 C-35.87806948 22.3581553 -37.11458562 23.35218428 -38.375 24.3125 C-46.32940495 31.06946764 -50.97076847 41.70732707 -52.0859375 51.984375 C-52.3417192 55.42705838 -52.54521987 58.86343336 -52.6875 62.3125 C-50.7075 62.6425 -48.7275 62.9725 -46.6875 63.3125 C-46.73390625 62.66023438 -46.7803125 62.00796875 -46.828125 61.3359375 C-47.0722252 55.4252255 -46.83084929 51.89199132 -42.6875 47.3125 C-37.52960526 43.3125 -37.52960526 43.3125 -33.6875 43.3125 C-34.02042411 46.86369047 -35.14250746 49.20176811 -37.0625 52.125 C-40.78823833 57.84282386 -42.83874303 63.52244423 -43.6875 70.3125 C-46.3275 70.6425 -48.9675 70.9725 -51.6875 71.3125 C-48.21140277 82.47487434 -42.48189019 91.19494355 -35.23828125 100.26953125 C-33.51768836 102.53620651 -32.13060037 104.92159496 -30.7890625 107.4296875 C-28.86630732 110.71609883 -26.54100808 113.7303723 -24.2734375 116.78515625 C-22.6875 119.3125 -22.6875 119.3125 -20.6875 125.3125 C-15.0775 125.3125 -9.4675 125.3125 -3.6875 125.3125 C-3.6875 121.6825 -3.6875 118.0525 -3.6875 114.3125 C-1.7075 114.3125 0.2725 114.3125 2.3125 114.3125 C2.3125 117.9425 2.3125 121.5725 2.3125 125.3125 C7.9225 125.3125 13.5325 125.3125 19.3125 125.3125 C21.50853098 120.92547314 21.50853098 120.92547314 23.625 116.5 C25.3125 114.3125 25.3125 114.3125 28.5 113.5 C29.428125 113.438125 30.35625 113.37625 31.3125 113.3125 C32.3125 116.3125 32.3125 116.3125 31.53515625 118.35546875 C31.15230469 119.06316406 30.76945312 119.77085937 30.375 120.5 C29.99472656 121.21542969 29.61445313 121.93085938 29.22265625 122.66796875 C28.92230469 123.21066406 28.62195313 123.75335938 28.3125 124.3125 C30.6225 125.3025 32.9325 126.2925 35.3125 127.3125 C35.75677209 134.82810282 35.97282236 140.1875049 31.3125 146.3125 C28.08458445 148.4644437 27.02849191 148.51336443 23.3125 148.3125 C23.36470703 149.18261719 23.36470703 149.18261719 23.41796875 150.0703125 C23.59789189 155.26238011 23.36510678 158.89148328 20.3125 163.3125 C16.2125 166.3125 16.2125 166.3125 13.3125 166.3125 C13.250625 167.055 13.18875 167.7975 13.125 168.5625 C12.06169061 172.16139332 10.36027533 173.23109246 7.3125 175.3125 C4.71733479 176.61008261 2.77066973 176.44519102 -0.125 176.4375 C-1.09308594 176.44007813 -2.06117188 176.44265625 -3.05859375 176.4453125 C-5.6875 176.3125 -5.6875 176.3125 -8.6875 175.3125 C-8.6875 174.6525 -8.6875 173.9925 -8.6875 173.3125 C-9.6775 172.9825 -10.6675 172.6525 -11.6875 172.3125 C-14.01015612 169.73177097 -14.6875 168.86073932 -14.6875 165.3125 C-15.265 165.23 -15.8425 165.1475 -16.4375 165.0625 C-19.33479825 164.09673392 -20.69020757 162.58528104 -22.6875 160.3125 C-23.94987731 157.78774538 -23.78606404 156.00049534 -23.75 153.1875 C-23.74097656 152.27742187 -23.73195312 151.36734375 -23.72265625 150.4296875 C-23.71105469 149.73101562 -23.69945312 149.03234375 -23.6875 148.3125 C-25.0178125 148.1578125 -25.0178125 148.1578125 -26.375 148 C-32.0188783 146.82862903 -32.0188783 146.82862903 -34.6875 144.3125 C-36.27298575 138.32045731 -35.69334263 132.34755577 -34.6875 126.3125 C-32.3775 126.3125 -30.0675 126.3125 -27.6875 126.3125 C-33.43028675 116.33581557 -39.77118278 106.78809918 -47.0625 97.875 C-53.6875 89.74551793 -53.6875 89.74551793 -53.6875 84.3125 C-54.3475 84.3125 -55.0075 84.3125 -55.6875 84.3125 C-61.0699388 67.77047143 -63.25526766 51.08626397 -55.3125 34.875 C-54.46126521 33.3407385 -53.58709199 31.81891736 -52.6875 30.3125 C-52.27242187 29.58289063 -51.85734375 28.85328125 -51.4296875 28.1015625 C-44.76611354 16.82796882 -33.25538705 7.08286612 -20.6875 3.3125 C-19.89601562 3.01730469 -19.10453125 2.72210938 -18.2890625 2.41796875 C-12.20138404 0.36688939 -6.36704384 0.03193656 0 0 Z M-29.6875 132.3125 C-30.13678253 137.85595948 -30.13678253 137.85595948 -28.5098877 140.65415955 C-26.09929678 142.84775449 -24.76366034 142.82429267 -21.52929688 142.84594727 C-20.47810669 142.8617836 -19.4269165 142.87761993 -18.34387207 142.89393616 C-16.64224915 142.88649635 -16.64224915 142.88649635 -14.90625 142.87890625 C-13.74121948 142.88510483 -12.57618896 142.89130341 -11.37585449 142.89768982 C-8.91122271 142.90479783 -6.44654301 142.90159702 -3.98193359 142.88891602 C-0.20190474 142.87505283 3.57564926 142.90910801 7.35546875 142.94726562 C9.74739644 142.94821677 12.13932725 142.94635824 14.53125 142.94140625 C15.66566528 142.95466446 16.80008057 142.96792267 17.96887207 142.98158264 C19.54565735 142.96278297 19.54565735 142.96278297 21.15429688 142.94360352 C22.08012573 142.94264175 23.00595459 142.94167999 23.95983887 142.94068909 C26.52010029 142.49683857 26.52010029 142.49683857 28.1973877 140.08555603 C29.72725868 137.01249592 29.72725868 137.01249592 28.3125 132.3125 C9.1725 132.3125 -9.9675 132.3125 -29.6875 132.3125 Z M-17.6875 149.3125 C-17.96830902 152.47160152 -18.03748709 154.62590063 -16.58227539 157.48071289 C-13.84248012 160.12942877 -11.88183839 159.81446712 -8.12109375 159.80859375 C-6.1865332 159.80956055 -6.1865332 159.80956055 -4.21289062 159.81054688 C-3.54233643 159.80015381 -2.87178223 159.78976074 -2.1809082 159.77905273 C-0.12824984 159.75004592 1.92183346 159.75845322 3.97460938 159.77148438 C9.1604953 159.77688589 9.1604953 159.77688589 14.3125 159.3125 C16.37175681 156.22361478 16.5515374 155.60314073 16.4375 152.125 C16.39625 150.866875 16.355 149.60875 16.3125 148.3125 C11.63110746 148.28784712 6.94975241 148.26966261 2.26831055 148.25756836 C0.67455386 148.25252843 -0.91919819 148.2456965 -2.51293945 148.23706055 C-4.79900253 148.22498001 -7.08500467 148.21926845 -9.37109375 148.21484375 C-10.08776718 148.20968246 -10.80444061 148.20452118 -11.54283142 148.19920349 C-14.8995654 147.90017174 -14.8995654 147.90017174 -17.6875 149.3125 Z M-6.6875 166.3125 C-5.02784619 169.45320589 -5.02784619 169.45320589 -2.375 170.125 C0.77681702 170.34489421 2.53464938 169.77858783 5.3125 168.3125 C5.6425 167.6525 5.9725 166.9925 6.3125 166.3125 C2.0225 166.3125 -2.2675 166.3125 -6.6875 166.3125 Z " fill="#E3F4F5" transform="translate(213.6875,143.6875)"/>
<path d="M0 0 C10 0 10 0 12.5078125 2.1171875 C13.30832031 3.48230469 13.30832031 3.48230469 14.125 4.875 C14.68445313 5.77992188 15.24390625 6.68484375 15.8203125 7.6171875 C17 10 17 10 17 12 C21.00972202 8.32442148 23.45335415 4.81033104 26 0 C29.63 0 33.26 0 37 0 C37 9.9 37 19.8 37 30 C33.7 30 30.4 30 27 30 C26.67 26.37 26.34 22.74 26 19 C25.505 19.825 25.01 20.65 24.5 21.5 C21.85200404 24.14799596 21.44807368 24.41380167 17.9375 24.5625 C14 24 14 24 11 20 C10.34 23.3 9.68 26.6 9 30 C6.03 30 3.06 30 0 30 C0 20.1 0 10.2 0 0 Z " fill="#F0F9F9" transform="translate(271,204)"/>
<path d="M0 0 C0.38573685 0.48797562 0.77147369 0.97595123 1.16889954 1.47871399 C3.63583873 3.52825751 5.11537293 3.36282956 8.29760742 3.34057617 C9.91894844 3.34023628 9.91894844 3.34023628 11.57304382 3.33988953 C13.32159416 3.31666374 13.32159416 3.31666374 15.10546875 3.29296875 C16.89698112 3.28660149 16.89698112 3.28660149 18.72468567 3.28010559 C22.54585144 3.26328959 26.36649316 3.22563093 30.1875 3.1875 C32.77538302 3.17245699 35.36327429 3.15876792 37.95117188 3.14648438 C44.30096058 3.11337645 50.65044286 3.06314762 57 3 C56.67 3.99 56.34 4.98 56 6 C52.27445649 7.62773825 47.95003392 7.12534877 43.953125 7.09765625 C43.18192322 7.0962413 42.41072144 7.09482635 41.6161499 7.09336853 C39.16072662 7.08778534 36.70539558 7.07523595 34.25 7.0625 C32.58203257 7.05748283 30.91406371 7.0529203 29.24609375 7.04882812 C25.16402713 7.03782141 21.08202919 7.02056836 17 7 C17 7.66 17 8.32 17 9 C22.94 9.33 28.88 9.66 35 10 C35 10.33 35 10.66 35 11 C27.74 11 20.48 11 13 11 C12.4452998 16.76887492 12.4452998 16.76887492 15 20 C18.00852608 20.4181217 18.00852608 20.4181217 21.5390625 20.29296875 C22.84101563 20.28330078 24.14296875 20.27363281 25.484375 20.26367188 C26.86458923 20.23860388 28.24479756 20.21320902 29.625 20.1875 C31.01300663 20.17245517 32.40102867 20.15876641 33.7890625 20.14648438 C37.19309509 20.1110257 40.59635622 20.06160298 44 20 C44.66 16.7 45.32 13.4 46 10 C45.01 9.67 44.02 9.34 43 9 C44.32 9 45.64 9 47 9 C47.495 10.98 47.495 10.98 48 13 C48.99 12.67 49.98 12.34 51 12 C51 11.34 51 10.68 51 10 C51.66 10 52.32 10 53 10 C53.34394547 15.73242442 53.38869294 20.09223781 50 25 C45.9 28 45.9 28 43 28 C42.9071875 29.11375 42.9071875 29.11375 42.8125 30.25 C41.74919061 33.84889332 40.04777533 34.91859246 37 37 C34.40483479 38.29758261 32.45816973 38.13269102 29.5625 38.125 C28.59441406 38.12757813 27.62632812 38.13015625 26.62890625 38.1328125 C24 38 24 38 21 37 C21 36.34 21 35.68 21 35 C19.515 34.505 19.515 34.505 18 34 C15.67734388 31.41927097 15 30.54823932 15 27 C14.4225 26.9175 13.845 26.835 13.25 26.75 C10.35270175 25.78423392 8.99729243 24.27278104 7 22 C5.73762269 19.47524538 5.90143596 17.68799534 5.9375 14.875 C5.94652344 13.96492188 5.95554688 13.05484375 5.96484375 12.1171875 C5.97644531 11.41851562 5.98804688 10.71984375 6 10 C3.03 9.505 3.03 9.505 0 9 C1.32 8.67 2.64 8.34 4 8 C3.01 6.8553125 3.01 6.8553125 2 5.6875 C0 3 0 3 0 0 Z M23 28 C24.65965381 31.14070589 24.65965381 31.14070589 27.3125 31.8125 C30.46431702 32.03239421 32.22214938 31.46608783 35 30 C35.33 29.34 35.66 28.68 36 28 C31.71 28 27.42 28 23 28 Z " fill="#D3ECEE" transform="translate(184,282)"/>
<path d="M0 0 C10 0 10 0 12.5078125 1.6796875 C13.30832031 2.76636719 13.30832031 2.76636719 14.125 3.875 C14.68445313 4.59429687 15.24390625 5.31359375 15.8203125 6.0546875 C17 8 17 8 17 10 C17.66 10 18.32 10 19 10 C19.99 11.32 20.98 12.64 22 14 C22.33 9.38 22.66 4.76 23 0 C26.3 0 29.6 0 33 0 C33 9.9 33 19.8 33 30 C22 30 22 30 19.39453125 28.3203125 C18.87246094 27.59585938 18.35039062 26.87140625 17.8125 26.125 C17.26207031 25.40570313 16.71164062 24.68640625 16.14453125 23.9453125 C15 22 15 22 15 20 C14.34 20 13.68 20 13 20 C12.34 19.01 11.68 18.02 11 17 C10.67 21.29 10.34 25.58 10 30 C6.7 30 3.4 30 0 30 C0 20.1 0 10.2 0 0 Z " fill="#F5FBFB" transform="translate(336,204)"/>
<path d="M0 0 C3.3 0 6.6 0 10 0 C10.06058594 1.43214844 10.12117187 2.86429688 10.18359375 4.33984375 C10.26798104 6.20574041 10.35262993 8.07162524 10.4375 9.9375 C10.47681641 10.88302734 10.51613281 11.82855469 10.55664062 12.80273438 C10.61948242 14.15141602 10.61948242 14.15141602 10.68359375 15.52734375 C10.72025146 16.35999756 10.75690918 17.19265137 10.79467773 18.05053711 C10.79367103 20.00338858 10.79367103 20.00338858 12 21 C13.87321948 21.16053815 13.87321948 21.16053815 16 21.125 C16.721875 21.12757813 17.44375 21.13015625 18.1875 21.1328125 C20.02089415 21.19695276 20.02089415 21.19695276 21 20 C21.15655027 18.51361008 21.25066943 17.02050873 21.31640625 15.52734375 C21.35830078 14.62822266 21.40019531 13.72910156 21.44335938 12.80273438 C21.48267578 11.85720703 21.52199219 10.91167969 21.5625 9.9375 C21.60568359 8.98810547 21.64886719 8.03871094 21.69335938 7.06054688 C21.79979132 4.70721824 21.90043154 2.35362901 22 0 C25.63 0 29.26 0 33 0 C33.10851899 3.35504552 33.18756353 6.70653972 33.25 10.0625 C33.30027344 11.47692383 33.30027344 11.47692383 33.3515625 12.91992188 C33.43908635 19.19975842 32.76014867 22.90756843 29 28 C22.75295842 32.16469438 14.19906973 31.397514 7.03515625 30.05859375 C3.73624039 28.34265095 1.61518961 26.30468192 0 23 C-0.59681668 19.0198755 -0.47311653 15.13794215 -0.3125 11.125 C-0.28994141 10.05507812 -0.26738281 8.98515625 -0.24414062 7.8828125 C-0.18547524 5.25460308 -0.09580252 2.62711786 0 0 Z " fill="#E8F6F7" transform="translate(229,204)"/>
<path d="M0 0 C3.63 0 7.26 0 11 0 C13.35092667 4.97004157 15.69396815 9.94362961 18.02539062 14.92285156 C18.81932534 16.61493487 19.61966168 18.30401333 20.421875 19.9921875 C22.11096154 23.62739548 23 25.92635018 23 30 C19.95194256 30.28755259 17.03483166 30.46647503 14 30 C13.319375 28.7625 13.319375 28.7625 12.625 27.5 C12.08875 26.675 11.5525 25.85 11 25 C7.24070342 24.23877172 3.75929658 24.23877172 0 25 C-1.6446674 27.46326712 -1.6446674 27.46326712 -3 30 C-6.03483166 30.46647503 -8.95194256 30.28755259 -12 30 C-12.78883492 27.71329709 -13.15581888 26.44929047 -12.35083008 24.12817383 C-11.99400146 23.49419678 -11.63717285 22.86021973 -11.26953125 22.20703125 C-10.88015381 21.49796631 -10.49077637 20.78890137 -10.08959961 20.05834961 C-9.66815674 19.31721924 -9.24671387 18.57608887 -8.8125 17.8125 C-7.97437256 16.29026621 -7.13841147 14.76683751 -6.3046875 13.2421875 C-5.9034668 12.51225586 -5.50224609 11.78232422 -5.08886719 11.03027344 C-3.16527347 7.44359062 -1.56903413 3.75203813 0 0 Z M5 11 C4.67 12.65 4.34 14.3 4 16 C4.99 16 5.98 16 7 16 C6.67 14.35 6.34 12.7 6 11 C5.67 11 5.34 11 5 11 Z " fill="#EBF6F7" transform="translate(388,204)"/>
<path d="M0 0 C3.3 0 6.6 0 10 0 C10 6.93 10 13.86 10 21 C15.94 21 21.88 21 28 21 C30 28 30 28 29 30 C19.43 30 9.86 30 0 30 C0 20.1 0 10.2 0 0 Z " fill="#FBFEFD" transform="translate(192,204)"/>
<path d="M0 0 C3.3 0 6.6 0 10 0 C10 0.33 10 0.66 10 1 C7.36 1.33 4.72 1.66 2 2 C5.47264963 13.15130348 11.19000565 21.87813207 18.4375 30.9375 C19.86484888 32.82160053 21.04738993 34.6835505 22.1875 36.75 C23.85530774 40.04041776 23.85530774 40.04041776 26.3125 42.5 C28 45 28 45 27.875 48.625 C27 52 27 52 25 55 C24.41734375 54.01902344 23.8346875 53.03804688 23.234375 52.02734375 C18.32750847 43.90500423 13.14613281 36.31206159 7.02441406 29.05053711 C0 20.6393541 0 20.6393541 0 15 C-0.66 15 -1.32 15 -2 15 C-2.33 13.68 -2.66 12.36 -3 11 C-2.34 11 -1.68 11 -1 11 C-0.67 7.37 -0.34 3.74 0 0 Z " fill="#DBEEEF" transform="translate(160,213)"/>
<path d="M0 0 C7.54837521 0.51466195 14.2872604 3.6436302 21 7 C21 7.66 21 8.32 21 9 C22.32 9.33 23.64 9.66 25 10 C25 10.66 25 11.32 25 12 C25.56589844 12.23976562 26.13179687 12.47953125 26.71484375 12.7265625 C29.47302711 14.26360143 31.3520728 16.12343118 33.5625 18.375 C34.32691406 19.14585937 35.09132813 19.91671875 35.87890625 20.7109375 C41 26.23756906 41 26.23756906 41 30 C37.75 30.3125 37.75 30.3125 34 30 C31.5625 27.625 31.5625 27.625 30 25 C30 24.34 30 23.68 30 23 C29.01 23 28.02 23 27 23 C25.3125 21.625 25.3125 21.625 24 20 C24 19.34 24 18.68 24 18 C23.484375 17.773125 22.96875 17.54625 22.4375 17.3125 C20.33901762 16.18254795 18.68663364 15.00950551 16.8125 13.5625 C9.47604369 8.27776452 0.76448648 7.26054374 -8 6 C-8 5.67 -8 5.34 -8 5 C-7.28972656 4.95101562 -6.57945312 4.90203125 -5.84765625 4.8515625 C-4.92855469 4.77679688 -4.00945312 4.70203125 -3.0625 4.625 C-2.14597656 4.55539063 -1.22945312 4.48578125 -0.28515625 4.4140625 C0.84599609 4.20910156 0.84599609 4.20910156 2 4 C2.33 3.34 2.66 2.68 3 2 C2.01 1.67 1.02 1.34 0 1 C0 0.67 0 0.34 0 0 Z " fill="#CAEAED" transform="translate(224,145)"/>
<path d="M0 0 C2.31 0 4.62 0 7 0 C6.83628906 0.55171875 6.67257813 1.1034375 6.50390625 1.671875 C5.94239586 4.26614007 5.90260992 6.59835411 5.9375 9.25 C5.95103516 10.58804687 5.95103516 10.58804687 5.96484375 11.953125 C5.97644531 12.62859375 5.98804688 13.3040625 6 14 C8.51677113 15.25838557 10.41293288 15.20818973 13.2265625 15.31640625 C14.2578125 15.35830078 15.2890625 15.40019531 16.3515625 15.44335938 C17.43179688 15.48267578 18.51203125 15.52199219 19.625 15.5625 C20.71296875 15.60568359 21.8009375 15.64886719 22.921875 15.69335938 C25.6144517 15.7996453 28.30712253 15.90168057 31 16 C31.33 16.66 31.66 17.32 32 18 C31.67 18.66 31.34 19.32 31 20 C28.66255706 20.46806645 26.30260921 20.82669794 23.9375 21.125 C22.64714844 21.29257812 21.35679687 21.46015625 20.02734375 21.6328125 C19.02832031 21.75398438 18.02929688 21.87515625 17 22 C20.73333401 25.18001193 23.06369399 26.54080874 28 27 C27.34 28.32 26.68 29.64 26 31 C22.37 31 18.74 31 15 31 C15 30.34 15 29.68 15 29 C14.01 28.67 13.02 28.34 12 28 C9.67734388 25.41927097 9 24.54823932 9 21 C8.401875 20.87625 7.80375 20.7525 7.1875 20.625 C5 20 5 20 2 18 C1.47583008 16.12060547 1.47583008 16.12060547 1.26953125 13.8671875 C1.18896484 13.06152344 1.10839844 12.25585938 1.02539062 11.42578125 C0.95513672 10.58402344 0.88488281 9.74226563 0.8125 8.875 C0.73064453 8.02550781 0.64878906 7.17601562 0.56445312 6.30078125 C0.36397541 4.2016616 0.18038389 2.10094176 0 0 Z " fill="#F1FBFB" transform="translate(190,288)"/>
<path d="M0 0 C3.3 0 6.6 0 10 0 C10 9.9 10 19.8 10 30 C6.7 30 3.4 30 0 30 C0 20.1 0 10.2 0 0 Z " fill="#EBF7F7" transform="translate(418,204)"/>
<path d="M0 0 C3.3 0 6.6 0 10 0 C10 9.9 10 19.8 10 30 C6.7 30 3.4 30 0 30 C0 20.1 0 10.2 0 0 Z " fill="#D9EFF0" transform="translate(317,204)"/>
<path d="M0 0 C3.63 0 7.26 0 11 0 C11.10851899 3.35504552 11.18756353 6.70653972 11.25 10.0625 C11.30027344 11.47692383 11.30027344 11.47692383 11.3515625 12.91992188 C11.43908635 19.19975842 10.76014867 22.90756843 7 28 C3.59568053 30.26954631 1.83475798 30.36549949 -2.1875 30.625 C-3.27417969 30.69976562 -4.36085937 30.77453125 -5.48046875 30.8515625 C-6.72763672 30.92503906 -6.72763672 30.92503906 -8 31 C-8 30.34 -8 29.68 -8 29 C-7.40832031 28.87882812 -6.81664062 28.75765625 -6.20703125 28.6328125 C-1.96196415 27.73255357 2.02439661 26.79543379 6 25 C6 24.34 6 23.68 6 23 C6.66 23 7.32 23 8 23 C7.34 22.34 6.68 21.68 6 21 C5.29488281 21.32742187 4.58976563 21.65484375 3.86328125 21.9921875 C0.76132833 23.08400722 -1.54006053 23.20385396 -4.8125 23.125 C-6.27623047 23.09792969 -6.27623047 23.09792969 -7.76953125 23.0703125 C-8.50558594 23.04710937 -9.24164063 23.02390625 -10 23 C-10 22.67 -10 22.34 -10 22 C-7.94921875 21.77213542 -5.8984375 21.54427083 -3.84765625 21.31640625 C-1.98859771 21.18113386 -1.98859771 21.18113386 -1 20 C-0.84344973 18.51361008 -0.74933057 17.02050873 -0.68359375 15.52734375 C-0.64169922 14.62822266 -0.59980469 13.72910156 -0.55664062 12.80273438 C-0.51732422 11.85720703 -0.47800781 10.91167969 -0.4375 9.9375 C-0.39431641 8.98810547 -0.35113281 8.03871094 -0.30664062 7.06054688 C-0.20020868 4.70721824 -0.09956846 2.35362901 0 0 Z " fill="#F3FAFA" transform="translate(251,204)"/>
<path d="M0 0 C0.33 0 0.66 0 1 0 C1 9.57 1 19.14 1 29 C4.96 28.505 4.96 28.505 9 28 C9 27.34 9 26.68 9 26 C9.66 26 10.32 26 11 26 C10.67 25.01 10.34 24.02 10 23 C9.34 22.67 8.68 22.34 8 22 C8.01160156 20.74703125 8.02320313 19.4940625 8.03515625 18.203125 C8.04453716 16.55208483 8.05363704 14.90104304 8.0625 13.25 C8.07087891 12.425 8.07925781 11.6 8.08789062 10.75 C8.09111328 9.95078125 8.09433594 9.1515625 8.09765625 8.328125 C8.10289307 7.5949707 8.10812988 6.86181641 8.11352539 6.10644531 C7.9975109 3.9538151 7.59073271 2.0685865 7 0 C7.99 0 8.98 0 10 0 C10 6.93 10 13.86 10 21 C15.94 21 21.88 21 28 21 C30 28 30 28 29 30 C19.43 30 9.86 30 0 30 C0 20.1 0 10.2 0 0 Z " fill="#C7E4E5" transform="translate(192,204)"/>
<path d="M0 0 C1.65 0 3.3 0 5 0 C5 8.58 5 17.16 5 26 C-2 27 -2 27 -4 26 C-4 25.01 -4 24.02 -4 23 C-5.65 22.67 -7.3 22.34 -9 22 C-6.45086089 17.28409264 -6.45086089 17.28409264 -3.8984375 15.67578125 C-1.7251745 14.13060747 -1.7251745 14.13060747 -1.6796875 11.40625 C-1.74414062 10.4471875 -1.80859375 9.488125 -1.875 8.5 C-2.19680197 3.29520295 -2.19680197 3.29520295 0 0 Z " fill="#FDFEFC" transform="translate(362,205)"/>
<path d="M0 0 C4.37398827 0 6.59226481 1.22666155 9.625 4.1875 C12.48653474 7.29067545 15.01048673 10.26966262 17 14 C16.75 16.375 16.75 16.375 16 18 C14.68 18.33 13.36 18.66 12 19 C12 18.34 12 17.68 12 17 C11.01 16.67 10.02 16.34 9 16 C9 15.34 9 14.68 9 14 C8.01 13.67 7.02 13.34 6 13 C6 12.34 6 11.68 6 11 C5.01 10.67 4.02 10.34 3 10 C0.28586205 7.82868964 -0.90456875 6.82070873 -1.3125 3.3125 C-1 1 -1 1 0 0 Z " fill="#F8FCFE" transform="translate(265,260)"/>
<path d="M0 0 C4.94790177 -0.0493651 9.89566083 -0.08570269 14.84375 -0.10986328 C16.52769466 -0.11993317 18.21162179 -0.13358988 19.89550781 -0.15087891 C22.31319501 -0.17508426 24.73065143 -0.18647296 27.1484375 -0.1953125 C27.9036972 -0.20563507 28.65895691 -0.21595764 29.43710327 -0.22659302 C31.2929398 -0.22699318 33.1481928 -0.12222716 35 0 C35.66 0.66 36.32 1.32 37 2 C36.67 2.66 36.34 3.32 36 4 C35.34 4 34.68 4 34 4 C34 4.66 34 5.32 34 6 C33.34 6.33 32.68 6.66 32 7 C31.34444881 9.52733235 31.34444881 9.52733235 31 12 C30.67 12 30.34 12 30 12 C30 9.03 30 6.06 30 3 C28.68 3.33 27.36 3.66 26 4 C23.97531289 4.08091092 21.94815381 4.10758899 19.921875 4.09765625 C18.76171875 4.09443359 17.6015625 4.09121094 16.40625 4.08789062 C15.1996875 4.07951172 13.993125 4.07113281 12.75 4.0625 C11.52796875 4.05798828 10.3059375 4.05347656 9.046875 4.04882812 C6.03120054 4.03704815 3.01562502 4.02059853 0 4 C0 2.68 0 1.36 0 0 Z " fill="#F8FEFE" transform="translate(201,288)"/>
<path d="M0 0 C4.9128779 0.24390174 7.49320391 2.8878628 10.75 6.25 C11.24371094 6.72824219 11.73742187 7.20648438 12.24609375 7.69921875 C15.14730059 10.63221964 16.7923713 12.81776485 17 17 C16 18 16 18 13.796875 18.3828125 C9.85122156 17.84276496 7.89800062 15.63006264 5.25 12.875 C4.75628906 12.400625 4.26257813 11.92625 3.75390625 11.4375 C0.49654005 8.13551234 -0.81158465 5.64309255 -1 1 C-0.67 0.67 -0.34 0.34 0 0 Z " fill="#D6ECEE" transform="translate(146,141)"/>
<path d="M0 0 C1.65 0 3.3 0 5 0 C5.921875 2.04296875 5.921875 2.04296875 6 5 C4.09407325 7.78249554 1.69445273 10.00358599 -0.75 12.3125 C-1.39710938 12.95767578 -2.04421875 13.60285156 -2.7109375 14.26757812 C-7.57857143 19 -7.57857143 19 -11 19 C-11.875 16.4375 -11.875 16.4375 -12 13 C-10.35221084 10.31093692 -8.39647067 8.05065085 -6 6 C-5.34 6 -4.68 6 -4 6 C-3.67 5.01 -3.34 4.02 -3 3 C-2.34 3 -1.68 3 -1 3 C-0.67 2.01 -0.34 1.02 0 0 Z " fill="#E7F5F6" transform="translate(157,260)"/>
<path d="M0 0 C0.68320312 0.29132813 1.36640625 0.58265625 2.0703125 0.8828125 C1.56921292 5.26743384 0.08736135 7.6829122 -2.9296875 10.8828125 C-3.5896875 10.8828125 -4.2496875 10.8828125 -4.9296875 10.8828125 C-5.2596875 11.8728125 -5.5896875 12.8628125 -5.9296875 13.8828125 C-6.5896875 13.8828125 -7.2496875 13.8828125 -7.9296875 13.8828125 C-8.5896875 15.2028125 -9.2496875 16.5228125 -9.9296875 17.8828125 C-11.5796875 17.8828125 -13.2296875 17.8828125 -14.9296875 17.8828125 C-15.8125 15.8125 -15.8125 15.8125 -15.9296875 12.8828125 C-14.23773574 10.24236605 -12.05688701 8.17375756 -9.8046875 6.0078125 C-9.22203125 5.40195313 -8.639375 4.79609375 -8.0390625 4.171875 C-3.66182782 -0.14647311 -3.66182782 -0.14647311 0 0 Z " fill="#D9F0F2" transform="translate(279.9296875,141.1171875)"/>
<path d="M0 0 C1.41152344 0.07250977 1.41152344 0.07250977 2.8515625 0.14648438 C3.83640625 0.20255859 4.82125 0.25863281 5.8359375 0.31640625 C6.82851562 0.36861328 7.82109375 0.42082031 8.84375 0.47460938 C11.29978318 0.60449574 13.7554311 0.73946789 16.2109375 0.87890625 C16.8359375 2.75390625 16.8359375 2.75390625 17.2109375 4.87890625 C15.2109375 6.87890625 15.2109375 6.87890625 13.1796875 7.12182617 C12.365 7.11771729 11.5503125 7.1136084 10.7109375 7.109375 C9.380625 7.10647461 9.380625 7.10647461 8.0234375 7.10351562 C7.0953125 7.09126953 6.1671875 7.07902344 5.2109375 7.06640625 C4.2828125 7.06576172 3.3546875 7.06511719 2.3984375 7.06445312 C-4.50831876 7.01927812 -4.50831876 7.01927812 -6.7890625 5.87890625 C-6.7890625 4.22890625 -6.7890625 2.57890625 -6.7890625 0.87890625 C-4.28805676 -0.37159662 -2.78563198 -0.15102824 0 0 Z " fill="#B4E4EA" transform="translate(123.7890625,206.12109375)"/>
<path d="M0 0 C0.38573685 0.48797562 0.77147369 0.97595123 1.16889954 1.47871399 C3.63583873 3.52825751 5.11537293 3.36282956 8.29760742 3.34057617 C9.91894844 3.34023628 9.91894844 3.34023628 11.57304382 3.33988953 C13.32159416 3.31666374 13.32159416 3.31666374 15.10546875 3.29296875 C16.89698112 3.28660149 16.89698112 3.28660149 18.72468567 3.28010559 C22.54585144 3.26328959 26.36649316 3.22563093 30.1875 3.1875 C32.77538302 3.17245699 35.36327429 3.15876792 37.95117188 3.14648438 C44.30096058 3.11337645 50.65044286 3.06314762 57 3 C56.67 3.99 56.34 4.98 56 6 C53.17956244 7.08497113 50.53209063 7.09975614 47.53857422 7.02172852 C46.66441864 7.00163223 45.79026306 6.98153595 44.88961792 6.96083069 C43.95409088 6.93379562 43.01856384 6.90676056 42.0546875 6.87890625 C41.08846466 6.85529526 40.12224182 6.83168427 39.1267395 6.80735779 C36.04267155 6.73086433 32.95886308 6.646815 29.875 6.5625 C27.79037744 6.50925976 25.70574205 6.45651949 23.62109375 6.40429688 C19.04193133 6.28911776 14.46292474 6.16905439 9.88400269 6.04469299 C8.58961357 6.01398703 7.29475327 6 6 6 C6.144375 6.73605469 6.28875 7.47210938 6.4375 8.23046875 C6.623125 9.20628906 6.80875 10.18210937 7 11.1875 C7.185625 12.15042969 7.37125 13.11335938 7.5625 14.10546875 C7.96877612 16.7934206 8.07933572 19.28771019 8 22 C6 20 6 20 5.8046875 17.6171875 C5.83949219 16.25980469 5.83949219 16.25980469 5.875 14.875 C5.89304688 13.96492188 5.91109375 13.05484375 5.9296875 12.1171875 C5.96449219 11.06917969 5.96449219 11.06917969 6 10 C3.03 9.505 3.03 9.505 0 9 C1.32 8.67 2.64 8.34 4 8 C3.01 6.8553125 3.01 6.8553125 2 5.6875 C0 3 0 3 0 0 Z " fill="#AFD7D7" transform="translate(184,282)"/>
<path d="M0 0 C-0.4167715 4.44556272 -2.33955713 7.23682607 -4.72265625 10.86328125 C-6.65558042 14.0966437 -7.79173882 17.43880915 -9 21 C-12.63 21 -16.26 21 -20 21 C-19.67 20.34 -19.34 19.68 -19 19 C-17.02 19.33 -15.04 19.66 -13 20 C-13.04640625 19.34773438 -13.0928125 18.69546875 -13.140625 18.0234375 C-13.3847252 12.1127255 -13.14334929 8.57949132 -9 4 C-3.84210526 0 -3.84210526 0 0 0 Z " fill="#F4FDFE" transform="translate(180,187)"/>
<path d="M0 0 C0.33 0 0.66 0 1 0 C1 3.63 1 7.26 1 11 C3.99992729 9.70855022 3.99992729 9.70855022 7 8 C7.33 7.01 7.66 6.02 8 5 C7.01 5.33 6.02 5.66 5 6 C5 5.34 5 4.68 5 4 C14.75078864 3.37539432 14.75078864 3.37539432 19.5 5.75 C21.72083366 7.74875029 23.50220217 9.42045929 25 12 C25 12.99 25 13.98 25 15 C22.69 15 20.38 15 18 15 C17.67 14.01 17.34 13.02 17 12 C11.31632113 10.10544038 6.50196983 10.85288982 1 13 C0 12 0 12 -0.09765625 9.27734375 C-0.08605469 8.17519531 -0.07445312 7.07304687 -0.0625 5.9375 C-0.05347656 4.83277344 -0.04445312 3.72804687 -0.03515625 2.58984375 C-0.02355469 1.73519531 -0.01195312 0.88054687 0 0 Z " fill="#C9E4E6" transform="translate(211,160)"/>
<path d="M0 0 C3.3 0 6.6 0 10 0 C10 9.9 10 19.8 10 30 C6.37 30 2.74 30 -1 30 C-4.1875 26.5 -4.1875 26.5 -6 23 C-4.35 23.33 -2.7 23.66 -1 24 C-1 24.99 -1 25.98 -1 27 C1.97 27 4.94 27 8 27 C8 18.42 8 9.84 8 1 C6.35 1 4.7 1 3 1 C2.34 5.29 1.68 9.58 1 14 C0.67 14 0.34 14 0 14 C0 9.38 0 4.76 0 0 Z " fill="#AFD9DD" transform="translate(359,204)"/>
<path d="M0 0 C1.98 0.495 1.98 0.495 4 1 C4.33 8.26 4.66 15.52 5 23 C3.35 23.33 1.7 23.66 0 24 C-1.61686074 22.38313926 -1.12989349 20.6092385 -1.1328125 18.37890625 C-1.13410156 17.44369141 -1.13539063 16.50847656 -1.13671875 15.54492188 C-1.13285156 14.56072266 -1.12898437 13.57652344 -1.125 12.5625 C-1.12886719 11.58216797 -1.13273438 10.60183594 -1.13671875 9.59179688 C-1.13542969 8.65529297 -1.13414062 7.71878906 -1.1328125 6.75390625 C-1.13168457 5.89095947 -1.13055664 5.0280127 -1.12939453 4.13891602 C-1 2 -1 2 0 0 Z " fill="#DCF4F8" transform="translate(212,113)"/>
<path d="M0 0 C0.66 0 1.32 0 2 0 C2 9.24 2 18.48 2 28 C-0.97 28 -3.94 28 -7 28 C-6.67 27.34 -6.34 26.68 -6 26 C-5.92907158 23.7927077 -5.91584975 21.58332548 -5.9375 19.375 C-5.94652344 18.18648437 -5.95554687 16.99796875 -5.96484375 15.7734375 C-5.97644531 14.85820312 -5.98804688 13.94296875 -6 13 C-5.195625 13.185625 -4.39125 13.37125 -3.5625 13.5625 C-2.716875 13.706875 -1.87125 13.85125 -1 14 C0.33901792 12.88873341 0.33901792 12.88873341 0.09765625 10.05859375 C0.08605469 8.86363281 0.07445312 7.66867188 0.0625 6.4375 C0.05347656 5.23996094 0.04445313 4.04242188 0.03515625 2.80859375 C0.02355469 1.88175781 0.01195312 0.95492187 0 0 Z " fill="#F8FDFD" transform="translate(324,205)"/>
<path d="M0 0 C5.26443219 0.54837835 10.29281229 1.45767456 15 4 C16.3125 6.125 16.3125 6.125 17 8 C17.99 8.33 18.98 8.66 20 9 C20 9.66 20 10.32 20 11 C18.35 11 16.7 11 15 11 C15 10.34 15 9.68 15 9 C13.84242188 8.86722656 12.68484375 8.73445312 11.4921875 8.59765625 C9.95311592 8.41934918 8.41405393 8.24095938 6.875 8.0625 C5.73417969 7.93198242 5.73417969 7.93198242 4.5703125 7.79882812 C0.35670423 7.3084513 -3.821195 6.74097022 -8 6 C-8 5.67 -8 5.34 -8 5 C-7.28972656 4.95101562 -6.57945312 4.90203125 -5.84765625 4.8515625 C-4.92855469 4.77679688 -4.00945312 4.70203125 -3.0625 4.625 C-2.14597656 4.55539063 -1.22945312 4.48578125 -0.28515625 4.4140625 C0.84599609 4.20910156 0.84599609 4.20910156 2 4 C2.33 3.34 2.66 2.68 3 2 C2.01 1.67 1.02 1.34 0 1 C0 0.67 0 0.34 0 0 Z " fill="#E8F4F4" transform="translate(224,145)"/>
<path d="M0 0 C3.3 0 6.6 0 10 0 C10.99 1.32 11.98 2.64 13 4 C12.01 4.495 12.01 4.495 11 5 C6.05 3.02 6.05 3.02 1 1 C1.66 9.58 2.32 18.16 3 27 C4.98 27.33 6.96 27.66 9 28 C9 24.7 9 21.4 9 18 C9.33 18 9.66 18 10 18 C10 21.96 10 25.92 10 30 C6.7 30 3.4 30 0 30 C0 20.1 0 10.2 0 0 Z " fill="#AED6D9" transform="translate(336,204)"/>
<path d="M0 0 C0.66 0.33 1.32 0.66 2 1 C2 1.66 2 2.32 2 3 C1.34 3 0.68 3 0 3 C0 3.66 0 4.32 0 5 C-6.13104736 9.31960155 -11.59762973 9.75690081 -19 10 C-18.38722388 7.03824877 -17.74627478 5.61941217 -16 3 C-13.43032309 2.48081443 -11.03283183 2.12079744 -8.4375 1.875 C-3.84415524 1.78167511 -3.84415524 1.78167511 0 0 Z " fill="#FBFDFC" transform="translate(257,224)"/>
<path d="M0 0 C0.53625 0.268125 1.0725 0.53625 1.625 0.8125 C1.625 1.8025 1.625 2.7925 1.625 3.8125 C0.965 3.8125 0.305 3.8125 -0.375 3.8125 C-0.375 4.4725 -0.375 5.1325 -0.375 5.8125 C-1.035 5.8125 -1.695 5.8125 -2.375 5.8125 C-2.375 6.4725 -2.375 7.1325 -2.375 7.8125 C-3.365 8.3075 -3.365 8.3075 -4.375 8.8125 C-4.808125 10.05 -4.808125 10.05 -5.25 11.3125 C-6.375 13.8125 -6.375 13.8125 -8.5 14.625 C-9.11875 14.686875 -9.7375 14.74875 -10.375 14.8125 C-10.375 15.4725 -10.375 16.1325 -10.375 16.8125 C-11.035 16.8125 -11.695 16.8125 -12.375 16.8125 C-12.375 17.4725 -12.375 18.1325 -12.375 18.8125 C-13.035 18.8125 -13.695 18.8125 -14.375 18.8125 C-13.81771087 15.46876525 -13.02326111 12.77937001 -11.375 9.8125 C-10.715 9.8125 -10.055 9.8125 -9.375 9.8125 C-9.33375 9.090625 -9.2925 8.36875 -9.25 7.625 C-7.94418545 3.42773896 -4.78596471 -0.37783932 0 0 Z " fill="#EDF7F8" transform="translate(178.375,157.1875)"/>
<path d="M0 0 C0.66 0.33 1.32 0.66 2 1 C1.67 1.99 1.34 2.98 1 4 C3.31 4 5.62 4 8 4 C0.5 9 0.5 9 -3 9 C-3.33 9.99 -3.66 10.98 -4 12 C-4.66 12 -5.32 12 -6 12 C-6.33 12.99 -6.66 13.98 -7 15 C-8.95597184 16.39712274 -10.95436401 17.73779907 -13 19 C-12.67 17.68 -12.34 16.36 -12 15 C-11.34 15 -10.68 15 -10 15 C-10 14.34 -10 13.68 -10 13 C-9.34 13 -8.68 13 -8 13 C-8 12.34 -8 11.68 -8 11 C-7.34 11 -6.68 11 -6 11 C-6.7763932 7.9254644 -6.7763932 7.9254644 -9 6 C-3.375 1.125 -3.375 1.125 0 0 Z " fill="#D2EEF0" transform="translate(186,150)"/>
<path d="M0 0 C3.3 0 6.6 0 10 0 C10.66 1.65 11.32 3.3 12 5 C10.0625 4.625 10.0625 4.625 8 4 C7.67 3.34 7.34 2.68 7 2 C4.03 1.505 4.03 1.505 1 1 C1 9.91 1 18.82 1 28 C3.31 28 5.62 28 8 28 C7.98839844 27.37351563 7.97679687 26.74703125 7.96484375 26.1015625 C7.95582031 25.28429687 7.94679688 24.46703125 7.9375 23.625 C7.92589844 22.81289062 7.91429687 22.00078125 7.90234375 21.1640625 C8 19 8 19 9 17 C11.0625 16.375 11.0625 16.375 13 16 C13 17.65 13 19.3 13 21 C12.34 20.67 11.68 20.34 11 20 C10.34 23.3 9.68 26.6 9 30 C6.03 30 3.06 30 0 30 C0 20.1 0 10.2 0 0 Z " fill="#DCFFFF" transform="translate(271,204)"/>
<path d="M0 0 C2.31 0 4.62 0 7 0 C6.84273437 0.55558594 6.68546875 1.11117188 6.5234375 1.68359375 C5.60017839 5.76935981 5.33170379 9.85514158 6 14 C8.3549963 16.08216876 8.3549963 16.08216876 11 17 C11 17.66 11 18.32 11 19 C4.25 18.25 4.25 18.25 2 16 C1.53340269 13.27530214 1.16400746 10.61820198 0.875 7.875 C0.78863281 7.12089844 0.70226562 6.36679687 0.61328125 5.58984375 C0.40110739 3.72742873 0.19954237 1.86381069 0 0 Z " fill="#F9FDFD" transform="translate(190,288)"/>
<path d="M0 0 C3.3 0 6.6 0 10 0 C10 0.33 10 0.66 10 1 C7.36 1.33 4.72 1.66 2 2 C2.28875 2.75925781 2.5775 3.51851562 2.875 4.30078125 C3.431875 5.79158203 3.431875 5.79158203 4 7.3125 C4.37125 8.29863281 4.7425 9.28476563 5.125 10.30078125 C6 13 6 13 6 16 C4.68 15.34 3.36 14.68 2 14 C2 15.98 2 17.96 2 20 C1.34 19.34 0.68 18.68 0 18 C0 17.01 0 16.02 0 15 C-0.66 15 -1.32 15 -2 15 C-2.33 13.68 -2.66 12.36 -3 11 C-2.34 11 -1.68 11 -1 11 C-0.67 7.37 -0.34 3.74 0 0 Z " fill="#BDDDE0" transform="translate(160,213)"/>
<path d="M0 0 C5.94 0 11.88 0 18 0 C18 0.99 18 1.98 18 3 C14.24600202 4.2039337 10.66782588 4.09877617 6.75 4.0625 C5.48671875 4.05347656 4.2234375 4.04445312 2.921875 4.03515625 C1.95765625 4.02355469 0.9934375 4.01195312 0 4 C0 2.68 0 1.36 0 0 Z " fill="#F8FEFE" transform="translate(120,208)"/>
<path d="M0 0 C0.33 0.66 0.66 1.32 1 2 C0.34 2 -0.32 2 -1 2 C-1.99 4.97 -2.98 7.94 -4 11 C-3.34 11 -2.68 11 -2 11 C-2 10.34 -2 9.68 -2 9 C-1.34 9 -0.68 9 0 9 C-0.33 8.01 -0.66 7.02 -1 6 C0.32 6.33 1.64 6.66 3 7 C1.02 10.63 -0.96 14.26 -3 18 C-4 14 -4 14 -3 12 C-3.61875 12.495 -4.2375 12.99 -4.875 13.5 C-7 15 -7 15 -9 15 C-9.33 15.66 -9.66 16.32 -10 17 C-8.66008864 10.52130772 -5.03526537 4.28930013 0 0 Z " fill="#C9E7E9" transform="translate(168,165)"/>
<path d="M0 0 C3.63 0 7.26 0 11 0 C11 3.3 11 6.6 11 10 C10.67 10 10.34 10 10 10 C10 7.03 10 4.06 10 1 C7.69 1.33 5.38 1.66 3 2 C2.67 7.94 2.34 13.88 2 20 C0.02 20.99 0.02 20.99 -2 22 C-1.67 21.34 -1.34 20.68 -1 20 C-0.84876169 18.4804236 -0.75118307 16.95527498 -0.68359375 15.4296875 C-0.64169922 14.53378906 -0.59980469 13.63789063 -0.55664062 12.71484375 C-0.49766602 11.30912109 -0.49766602 11.30912109 -0.4375 9.875 C-0.39431641 8.93011719 -0.35113281 7.98523438 -0.30664062 7.01171875 C-0.2004106 4.67465828 -0.09968729 2.3373487 0 0 Z " fill="#A9D5DB" transform="translate(251,204)"/>
<path d="M0 0 C-1.13940709 3.85645478 -2.17794066 7.06505829 -5 10 C-5.99 10 -6.98 10 -8 10 C-8.33 9.01 -8.66 8.02 -9 7 C-9.99 7.495 -9.99 7.495 -11 8 C-10.33333333 6.66666667 -9.66666667 5.33333333 -9 4 C-8.731875 3.278125 -8.46375 2.55625 -8.1875 1.8125 C-7 0 -7 0 -4.5 -0.8125 C-2 -1 -2 -1 0 0 Z " fill="#CAE4E8" transform="translate(246,258)"/>
<path d="M0 0 C4.29 0 8.58 0 13 0 C11.02 0.99 11.02 0.99 9 2 C9 2.66 9 3.32 9 4 C14.94 4.33 20.88 4.66 27 5 C27 5.33 27 5.66 27 6 C19.74 6 12.48 6 5 6 C4.67 8.97 4.34 11.94 4 15 C3.67 15 3.34 15 3 15 C2.94562393 13.41705218 2.90703729 11.83355744 2.875 10.25 C2.85179687 9.36828125 2.82859375 8.4865625 2.8046875 7.578125 C3.00860498 4.8864142 3.63448279 3.30095026 5 1 C3.35 1 1.7 1 0 1 C0 0.67 0 0.34 0 0 Z " fill="#9EFEFE" transform="translate(192,287)"/>
<path d="M0 0 C0.3125 2.1875 0.3125 2.1875 0 5 C-2.4375 7.75 -2.4375 7.75 -5 10 C-5.33 10.33 -5.66 10.66 -6 11 C-7.66617115 11.04063832 -9.33388095 11.042721 -11 11 C-6.69811321 1.67924528 -6.69811321 1.67924528 -2.8125 0.125 C-1.87629829 0.06043436 -0.93842547 0 0 0 Z " fill="#EEFBFC" transform="translate(248,281)"/>
<path d="M0 0 C0.32613281 0.48082031 0.65226563 0.96164062 0.98828125 1.45703125 C4.07397274 3.82372666 7.44155967 3.57299527 11.1875 3.6875 C11.93708984 3.72166016 12.68667969 3.75582031 13.45898438 3.79101562 C15.30546838 3.87334294 17.15270994 3.93835281 19 4 C19 4.33 19 4.66 19 5 C12.565 5.495 12.565 5.495 6 6 C6.33 7.711875 6.66 9.42375 7 11.1875 C7.70827747 14.86168936 8.10949647 18.25658943 8 22 C6 20 6 20 5.8046875 17.6171875 C5.83949219 16.25980469 5.83949219 16.25980469 5.875 14.875 C5.89304688 13.96492188 5.91109375 13.05484375 5.9296875 12.1171875 C5.96449219 11.06917969 5.96449219 11.06917969 6 10 C3.03 9.505 3.03 9.505 0 9 C1.32 8.67 2.64 8.34 4 8 C3.01 6.8553125 3.01 6.8553125 2 5.6875 C0 3 0 3 0 0 Z " fill="#A2CCD2" transform="translate(184,282)"/>
<path d="M0 0 C1.65 0 3.3 0 5 0 C5.33 1.65 5.66 3.3 6 5 C5.01 5.66 4.02 6.32 3 7 C3 5.68 3 4.36 3 3 C1.576875 3.99 1.576875 3.99 0.125 5 C-3 7 -3 7 -5 7 C-5.268125 7.639375 -5.53625 8.27875 -5.8125 8.9375 C-7 11 -7 11 -10 12 C-10 10 -10 10 -8.125 7.875 C-6 6 -6 6 -4 6 C-3.67 5.01 -3.34 4.02 -3 3 C-2.34 3 -1.68 3 -1 3 C-0.67 2.01 -0.34 1.02 0 0 Z " fill="#ADDADF" transform="translate(157,260)"/>
<path d="M0 0 C0.99 0.33 1.98 0.66 3 1 C2.67 1.66 2.34 2.32 2 3 C1.91550372 4.7404417 1.89276976 6.48409722 1.90234375 8.2265625 C1.90556641 9.2578125 1.90878906 10.2890625 1.91210938 11.3515625 C1.92048828 12.43179688 1.92886719 13.51203125 1.9375 14.625 C1.94201172 15.71296875 1.94652344 16.8009375 1.95117188 17.921875 C1.9629821 20.61460662 1.98091795 23.30731009 2 26 C5.63 26 9.26 26 13 26 C13 26.33 13 26.66 13 27 C8.71 27 4.42 27 0 27 C0 18.09 0 9.18 0 0 Z " fill="#E9FEFE" transform="translate(193,206)"/>
<path d="M0 0 C1 2 1 2 1 6 C1.45375 5.34 1.9075 4.68 2.375 4 C2.91125 3.34 3.4475 2.68 4 2 C4.66 2 5.32 2 6 2 C5.01 5.3 4.02 8.6 3 12 C-0.63 12 -4.26 12 -8 12 C-7.67 11.34 -7.34 10.68 -7 10 C-4.03 10.495 -4.03 10.495 -1 11 C-1.01160156 10.28972656 -1.02320313 9.57945312 -1.03515625 8.84765625 C-1.04869141 7.46900391 -1.04869141 7.46900391 -1.0625 6.0625 C-1.07410156 5.14597656 -1.08570313 4.22945312 -1.09765625 3.28515625 C-1 1 -1 1 0 0 Z " fill="#BDE3E6" transform="translate(168,196)"/>
<path d="M0 0 C4.49767041 0 6.70043782 1.33352067 9.8125 4.375 C12.04522393 6.69151269 12.96358571 7.89075712 14 11 C13.34 11 12.68 11 12 11 C10.7876751 9.49278526 9.576344 7.98473171 8.375 6.46875 C6.51749665 4.48459869 4.5836466 3.73818474 2 3 C2 4.32 2 5.64 2 7 C1.01 6.67 0.02 6.34 -1 6 C-1.042721 4.33388095 -1.04063832 2.66617115 -1 1 C-0.67 0.67 -0.34 0.34 0 0 Z " fill="#91D1D6" transform="translate(265,260)"/>
<path d="M0 0 C3.31234384 1.16379648 5.8898219 2.11238786 8 5 C8 6.32 8 7.64 8 9 C4.59687262 7.94124926 1.98646769 6.99097846 -1 5 C-0.67 3.35 -0.34 1.7 0 0 Z " fill="#D7EEF1" transform="translate(175,246)"/>
<path d="M0 0 C2.4375 0.8125 2.4375 0.8125 5 2 C5.33 2.99 5.66 3.98 6 5 C7.31267956 6.72943475 7.31267956 6.72943475 9 8 C9.99 8 10.98 8 12 8 C12.33 6.68 12.66 5.36 13 4 C15 7 15 7 14.625 9.1875 C14.41875 9.785625 14.2125 10.38375 14 11 C12.68 11.33 11.36 11.66 10 12 C10 11.34 10 10.68 10 10 C9.01 9.67 8.02 9.34 7 9 C7 8.34 7 7.68 7 7 C6.01 6.67 5.02 6.34 4 6 C4 5.34 4 4.68 4 4 C3.01 3.67 2.02 3.34 1 3 C0.67 2.01 0.34 1.02 0 0 Z " fill="#AADBDE" transform="translate(267,267)"/>
<path d="M0 0 C0 1.65 0 3.3 0 5 C-0.66 4.67 -1.32 4.34 -2 4 C-2.66 7.3 -3.32 10.6 -4 14 C-6.97 14 -9.94 14 -13 14 C-11 12 -11 12 -7.875 11.875 C-6.92625 11.91625 -5.9775 11.9575 -5 12 C-5.01160156 11.37351563 -5.02320313 10.74703125 -5.03515625 10.1015625 C-5.04417969 9.28429687 -5.05320312 8.46703125 -5.0625 7.625 C-5.07410156 6.81289062 -5.08570313 6.00078125 -5.09765625 5.1640625 C-5 3 -5 3 -4 1 C-1 0 -1 0 0 0 Z " fill="#98E6E7" transform="translate(284,220)"/>
<path d="M0 0 C-0.53115106 4.51478398 -2.36620292 7.34666857 -5 11 C-6.24546405 8.50907189 -5.7767578 7.58919267 -5 5 C-6.98 5.99 -8.96 6.98 -11 8 C-9.24437387 3.08424684 -5.22219793 0 0 0 Z " fill="#A8E0E3" transform="translate(180,187)"/>
<path d="M0 0 C2.5 2.3125 2.5 2.3125 5 5 C5 5.99 5 6.98 5 8 C3.68 7.34 2.36 6.68 1 6 C0.67 7.32 0.34 8.64 0 10 C-4.875 5.375 -4.875 5.375 -6 2 C-5.34 2 -4.68 2 -4 2 C-3.01 3.485 -3.01 3.485 -2 5 C0.18490007 2.32357511 0.18490007 2.32357511 0 0 Z " fill="#BCE2E5" transform="translate(174,240)"/>
<path d="M0 0 C0.33 0 0.66 0 1 0 C1 3.63 1 7.26 1 11 C2.65 10.34 4.3 9.68 6 9 C8.89453125 8.8046875 8.89453125 8.8046875 11.8125 8.875 C13.27623047 8.90207031 13.27623047 8.90207031 14.76953125 8.9296875 C15.50558594 8.95289063 16.24164063 8.97609375 17 9 C17 9.99 17 10.98 17 12 C16.01 11.67 15.02 11.34 14 11 C9.16894608 10.72654412 5.50697746 11.24117953 1 13 C0 12 0 12 -0.09765625 9.27734375 C-0.08605469 8.17519531 -0.07445312 7.07304687 -0.0625 5.9375 C-0.05347656 4.83277344 -0.04445312 3.72804687 -0.03515625 2.58984375 C-0.02355469 1.73519531 -0.01195312 0.88054687 0 0 Z " fill="#A9D9DE" transform="translate(211,160)"/>
<path d="M0 0 C0.33 0 0.66 0 1 0 C1 1.65 1 3.3 1 5 C0.01 5.495 0.01 5.495 -1 6 C-1.33 6.99 -1.66 7.98 -2 9 C0.64 9 3.28 9 6 9 C6 9.66 6 10.32 6 11 C3.03 11 0.06 11 -3 11 C-4 7 -4 7 -3.22265625 5.078125 C-1.61132812 2.5390625 -1.61132812 2.5390625 0 0 Z " fill="#A1D5D8" transform="translate(379,223)"/>
<path d="M0 0 C1.4540625 0.0309375 1.4540625 0.0309375 2.9375 0.0625 C0.67631962 2.80665095 -0.53844492 3.95660286 -4.078125 4.671875 C-5.14546875 4.71828125 -6.2128125 4.7646875 -7.3125 4.8125 C-8.92898437 4.89757812 -8.92898437 4.89757812 -10.578125 4.984375 C-11.39796875 5.01015625 -12.2178125 5.0359375 -13.0625 5.0625 C-13.0625 4.4025 -13.0625 3.7425 -13.0625 3.0625 C-12.10537109 2.86333984 -12.10537109 2.86333984 -11.12890625 2.66015625 C-10.30261719 2.48355469 -9.47632813 2.30695313 -8.625 2.125 C-7.80128906 1.95097656 -6.97757813 1.77695313 -6.12890625 1.59765625 C-3.08568002 0.80952394 -3.50902177 0.07161269 0 0 Z " fill="#BFF0F1" transform="translate(256.0625,229.9375)"/>
<path d="M0 0 C1.6026782 -0.10824843 3.20745748 -0.18570645 4.8125 -0.25 C5.70582031 -0.29640625 6.59914063 -0.3428125 7.51953125 -0.390625 C10 0 10 0 11.82421875 2.015625 C12.40623047 2.99789062 12.40623047 2.99789062 13 4 C11 5 11 5 8.6171875 4.22265625 C7.71226562 3.83980469 6.80734375 3.45695313 5.875 3.0625 C4.50988281 2.49208984 4.50988281 2.49208984 3.1171875 1.91015625 C2.41851562 1.60980469 1.71984375 1.30945313 1 1 C1 2.98 1 4.96 1 7 C0.67 7 0.34 7 0 7 C0 4.69 0 2.38 0 0 Z " fill="#C5E7EA" transform="translate(336,204)"/>
<path d="M0 0 C2.475 0.495 2.475 0.495 5 1 C5 1.99 5 2.98 5 4 C7.97 4 10.94 4 14 4 C14.33 3.01 14.66 2.02 15 1 C15 2.65 15 4.3 15 6 C5.11659193 6.92017937 5.11659193 6.92017937 2.37890625 4.6640625 C1.3125 3 1.3125 3 0 0 Z " fill="#D1F4F5" transform="translate(353,227)"/>
<path d="M0 0 C0.33 0 0.66 0 1 0 C1.48929664 7.21712538 1.48929664 7.21712538 -0.875 11 C-3 13 -3 13 -5 13 C-4.54554036 11.58208592 -4.08625056 10.16571954 -3.625 8.75 C-3.24214844 7.56664062 -3.24214844 7.56664062 -2.8515625 6.359375 C-2.04826333 4.13372042 -1.10288338 2.09068328 0 0 Z " fill="#C9E6EC" transform="translate(385,210)"/>
<path d="M0 0 C6.625 -0.25 6.625 -0.25 10 2 C7.69 2 5.38 2 3 2 C3.33 3.65 3.66 5.3 4 7 C2.68 6.67 1.36 6.34 0 6 C0 4.02 0 2.04 0 0 Z " fill="#DBFBFB" transform="translate(223,269)"/>
<path d="M0 0 C2.5654594 2.5654594 2.54046087 4.47686668 3 8 C3.99 8 4.98 8 6 8 C6.33 8.99 6.66 9.98 7 11 C6.01 11 5.02 11 4 11 C4 10.34 4 9.68 4 9 C3.34 9 2.68 9 2 9 C0.3125 7.3125 0.3125 7.3125 -1 5 C-0.6875 2.25 -0.6875 2.25 0 0 Z " fill="#C4E4E9" transform="translate(347,215)"/>
<path d="M0 0 C1.65 0.33 3.3 0.66 5 1 C5 1.99 5 2.98 5 4 C4.67 3.34 4.34 2.68 4 2 C3.34 2.66 2.68 3.32 2 4 C2 4.66 2 5.32 2 6 C-1 6 -1 6 -2.6875 4.5 C-3.120625 4.005 -3.55375 3.51 -4 3 C-3.67 2.34 -3.34 1.68 -3 1 C-2.01 1.33 -1.02 1.66 0 2 C0 1.34 0 0.68 0 0 Z " fill="#BDE6E8" transform="translate(252,162)"/>
<path d="M0 0 C0.99 0 1.98 0 3 0 C2.67 0.99 2.34 1.98 2 3 C1.34 3 0.68 3 0 3 C-0.33 3.99 -0.66 4.98 -1 6 C-2.95597184 7.39712274 -4.95436401 8.73779907 -7 10 C-6.67 8.68 -6.34 7.36 -6 6 C-5.34 6 -4.68 6 -4 6 C-4 5.34 -4 4.68 -4 4 C-3.34 4 -2.68 4 -2 4 C-2 3.34 -2 2.68 -2 2 C-1.34 2 -0.68 2 0 2 C0 1.34 0 0.68 0 0 Z " fill="#C1E4E7" transform="translate(180,159)"/>
<path d="M0 0 C0.33 0.66 0.66 1.32 1 2 C1.99 2 2.98 2 4 2 C4.33 2.99 4.66 3.98 5 5 C4.01 5.99 3.02 6.98 2 8 C1.34 6.68 0.68 5.36 0 4 C-0.66 4 -1.32 4 -2 4 C-1.34 2.68 -0.68 1.36 0 0 Z " fill="#F4FCFB" transform="translate(170,238)"/>
<path d="M0 0 C1.29585916 0.42492126 2.5866044 0.86545882 3.875 1.3125 C4.59429687 1.55613281 5.31359375 1.79976563 6.0546875 2.05078125 C8 3 8 3 10 6 C9.625 8.1875 9.625 8.1875 9 10 C8.34 9.34 7.68 8.68 7 8 C7 7.01 7 6.02 7 5 C6.401875 4.87625 5.80375 4.7525 5.1875 4.625 C3 4 3 4 0 2 C0 1.34 0 0.68 0 0 Z " fill="#B4DDDE" transform="translate(192,304)"/>
<path d="M0 0 C3.63 0 7.26 0 11 0 C11 0.66 11 1.32 11 2 C8.03 1.67 5.06 1.34 2 1 C1.67 2.32 1.34 3.64 1 5 C0.01 5.33 -0.98 5.66 -2 6 C-1.34 4.02 -0.68 2.04 0 0 Z " fill="#CCF1F4" transform="translate(388,204)"/>
<path d="M0 0 C2.0625 0.4375 2.0625 0.4375 4 1 C4.33 2.65 4.66 4.3 5 6 C3.125 5.75 3.125 5.75 1 5 C-0.25 2.9375 -0.25 2.9375 -1 1 C-0.67 0.67 -0.34 0.34 0 0 Z " fill="#FAFDFC" transform="translate(247,158)"/>
<path d="M0 0 C0 0.66 0 1.32 0 2 C1.32 2.66 2.64 3.32 4 4 C-3.425 3.01 -3.425 3.01 -11 2 C-11 1.67 -11 1.34 -11 1 C-7.27569643 0.30710631 -3.78916254 -0.11144596 0 0 Z " fill="#B2DADF" transform="translate(227,149)"/>
<path d="M0 0 C3.3 0 6.6 0 10 0 C10.66 1.65 11.32 3.3 12 5 C10.0625 4.625 10.0625 4.625 8 4 C7.67 3.34 7.34 2.68 7 2 C3.97065509 1.34227572 3.97065509 1.34227572 1 1 C0.67 1.99 0.34 2.98 0 4 C0 2.68 0 1.36 0 0 Z " fill="#C8EEF0" transform="translate(271,204)"/>
<path d="M0 0 C1.32 0.66 2.64 1.32 4 2 C3.67 5.3 3.34 8.6 3 12 C2.67 12 2.34 12 2 12 C2 8.7 2 5.4 2 2 C0.02 2.99 0.02 2.99 -2 4 C-2.33 3.01 -2.66 2.02 -3 1 C-2.01 0.67 -1.02 0.34 0 0 Z " fill="#D1FAFB" transform="translate(297,220)"/>
<path d="M0 0 C2.5 0.3125 2.5 0.3125 5 1 C5.33 1.66 5.66 2.32 6 3 C5.071875 3.1546875 5.071875 3.1546875 4.125 3.3125 C1.63473516 3.87525373 1.63473516 3.87525373 0 7 C-0.38133299 5.0085944 -0.71325582 3.00720923 -1 1 C-0.67 0.67 -0.34 0.34 0 0 Z " fill="#BAE2E5" transform="translate(146,141)"/>
<path d="M0 0 C0.99 0.33 1.98 0.66 3 1 C3.6875 3.0625 3.6875 3.0625 4 5 C2.68 5.33 1.36 5.66 0 6 C-1 3 -1 3 0 0 Z " fill="#EFF9F8" transform="translate(175,246)"/>
<path d="M0 0 C2.97 0.495 2.97 0.495 6 1 C5.67 1.66 5.34 2.32 5 3 C4.34 2.67 3.68 2.34 3 2 C3 3.32 3 4.64 3 6 C2.01 5.67 1.02 5.34 0 5 C0 3.35 0 1.7 0 0 Z " fill="#B3DFE2" transform="translate(264,261)"/>
<path d="M0 0 C-2.35968744 2.09749995 -3.54616994 2.96905704 -6.75 3.1875 C-7.86375 3.0946875 -7.86375 3.0946875 -9 3 C-8.67 2.01 -8.34 1.02 -8 0 C-4.71303767 -0.79953138 -3.28976808 -1.09658936 0 0 Z " fill="#D0ECED" transform="translate(246,289)"/>
<path d="M0 0 C1.32 0.66 2.64 1.32 4 2 C3.01 2 2.02 2 1 2 C1.66 2.33 2.32 2.66 3 3 C2.67 3.99 2.34 4.98 2 6 C0.68 5.34 -0.64 4.68 -2 4 C-1.34 2.68 -0.68 1.36 0 0 Z " fill="#F0F7FA" transform="translate(237,264)"/>
<path d="M0 0 C0.99 0.33 1.98 0.66 3 1 C3 1.99 3 2.98 3 4 C3.99 4.33 4.98 4.66 6 5 C5.67 6.32 5.34 7.64 5 9 C4.16094435 7.87926138 3.32892169 6.75325453 2.5 5.625 C2.0359375 4.99851562 1.571875 4.37203125 1.09375 3.7265625 C0 2 0 2 0 0 Z " fill="#B3DBE0" transform="translate(176,252)"/>
<path d="M0 0 C1.32 0.33 2.64 0.66 4 1 C3.01 2.32 2.02 3.64 1 5 C-0.65 4.67 -2.3 4.34 -4 4 C-3.67 3.34 -3.34 2.68 -3 2 C-2.01 2 -1.02 2 0 2 C0 1.34 0 0.68 0 0 Z " fill="#CEF4F4" transform="translate(384,228)"/>
<path d="M0 0 C0.103125 0.639375 0.20625 1.27875 0.3125 1.9375 C0.539375 2.618125 0.76625 3.29875 1 4 C1.99 4.33 2.98 4.66 4 5 C3.67 5.66 3.34 6.32 3 7 C2.01 7 1.02 7 0 7 C-0.38133299 5.0085944 -0.71325582 3.00720923 -1 1 C-0.67 0.67 -0.34 0.34 0 0 Z " fill="#B1DBE0" transform="translate(146,272)"/>
<path d="M0 0 C-0.33 0.99 -0.66 1.98 -1 3 C-3.64 3 -6.28 3 -9 3 C-9.33 2.34 -9.66 1.68 -10 1 C-2.25 0 -2.25 0 0 0 Z " fill="#BDE5E9" transform="translate(294,225)"/>
<path d="M0 0 C1.65 0 3.3 0 5 0 C4.34 0.66 3.68 1.32 3 2 C2.60235737 3.98821313 2.26224651 5.98944339 2 8 C0 6 0 6 -0.125 2.875 C-0.08375 1.92625 -0.0425 0.9775 0 0 Z " fill="#CBEBEE" transform="translate(229,204)"/>
<path d="M0 0 C0.33 0.66 0.66 1.32 1 2 C4.02934491 2.65772428 4.02934491 2.65772428 7 3 C6.67 3.66 6.34 4.32 6 5 C4.35 5 2.7 5 1 5 C0.67 3.35 0.34 1.7 0 0 Z " fill="#B0EBEE" transform="translate(264,154)"/>
</svg>
